<?xml version="1.0" standalone="no"?>
<!DOCTYPE svg PUBLIC "-//W3C//DTD SVG 20010904//EN"
 "http://www.w3.org/TR/2001/REC-SVG-20010904/DTD/svg10.dtd">
<svg version="1.0" xmlns="http://www.w3.org/2000/svg"
 width="355.000000pt" height="355.000000pt" viewBox="0 0 355.000000 355.000000"
 preserveAspectRatio="xMidYMid meet">
<metadata>
Created by potrace 1.16, written by Peter Selinger 2001-2019
</metadata>
<g transform="translate(0.000000,355.000000) scale(0.100000,-0.100000)"
fill="#000000" stroke="none">
<path d="M1002 2652 c-432 -428 -683 -684 -682 -696 0 -10 38 -58 85 -105 l84
-87 -81 -81 c-63 -63 -80 -87 -80 -109 0 -25 95 -123 678 -701 374 -370 686
-672 694 -673 23 0 1370 1351 1370 1375 0 12 -34 54 -85 105 l-85 85 85 85
c50 50 85 94 85 105 0 24 -1347 1375 -1370 1375 -8 0 -322 -305 -698 -678z
m1336 -65 l632 -632 -635 -635 -635 -635 -635 635 -635 635 632 632 c348 348
635 633 638 633 3 0 290 -285 638 -633z m-743 -1916 c49 -50 96 -91 105 -91 8
0 268 253 577 562 l563 563 65 -65 65 -65 -635 -635 -635 -635 -635 635 -635
635 62 62 61 62 476 -469 c262 -258 516 -509 566 -559z"/>
<path d="M1202 2447 c-308 -308 -472 -479 -472 -492 0 -13 164 -184 473 -493
369 -369 477 -472 497 -472 19 0 128 103 497 473 305 304 473 479 473 492 0
13 -168 188 -473 492 -370 371 -478 473 -497 473 -20 0 -127 -102 -498 -473z
m926 -924 l-433 -433 -432 432 -433 433 432 432 433 433 432 -432 433 -433
-432 -432z"/>
<path d="M1402 2247 c-174 -175 -272 -279 -272 -292 0 -28 538 -565 565 -565
28 0 565 538 565 565 0 28 -538 565 -565 565 -13 0 -118 -97 -293 -273z m526
-524 l-233 -233 -232 232 -233 233 232 232 233 233 232 -232 233 -233 -232
-232z"/>
<path d="M1607 2041 c-42 -43 -77 -82 -77 -86 0 -14 154 -165 168 -165 24 0
162 141 162 165 0 24 -138 165 -162 165 -8 0 -49 -35 -91 -79z"/>
</g>
</svg>
