
        <svg xmlns="http://www.w3.org/2000/svg" xmlns:xlink="http://www.w3.org/1999/xlink" version="1.1" width="3162.3083859332733" height="932.6171849522806" viewBox="0 0 3162.3083859332733 932.6171849522806">
			
			<g transform="scale(8.115419296663662) translate(10, 10)">
				<defs id="SvgjsDefs1086"/><g id="SvgjsG1087" featureKey="S6ay6y-0" transform="matrix(0.07460292429620902,0,0,0.07460292429620902,-0.0354363908193716,-0.0354363908193716)" fill="#000"><g xmlns="http://www.w3.org/2000/svg">    <path d="M559,1102.5l10.6-10.6L36.7,559L559,36.7L1081.2,559l-532.8,532.8L559,1102.5l10.6-10.6L559,1102.5l10.6,10.6l543.4-543.4   c2.8-2.8,4.4-6.7,4.4-10.6c0-4-1.6-7.8-4.4-10.6L569.6,4.9c-5.9-5.9-15.4-5.9-21.2,0L4.9,548.4c-5.9,5.9-5.9,15.4,0,21.2   l543.5,543.5c2.8,2.8,6.7,4.4,10.6,4.4s7.8-1.6,10.6-4.4L559,1102.5z"/>    <path d="M559,937.8l10.6,10.6l378.8-378.7c2.8-2.8,4.4-6.7,4.4-10.6c0-4-1.6-7.8-4.4-10.6L569.6,169.6c-2.8-2.8-6.7-4.4-10.6-4.4   c-4,0-7.8,1.6-10.6,4.4L169.7,548.4c-5.9,5.9-5.9,15.4,0,21.2l378.7,378.8c2.8,2.8,6.7,4.4,10.6,4.4c4,0,7.8-1.6,10.6-4.4   L559,937.8l10.6-10.6L201.5,559L559,201.5L916.6,559L548.4,927.2L559,937.8l10.6-10.6L559,937.8z M773.1,559l-10.6-10.6L559,751.9   L366.2,559L559,366.2l203.4,203.5L773.1,559l-10.6-10.6L773.1,559l10.6-10.6l-214-214.1c-2.8-2.8-6.7-4.4-10.6-4.4   c-4,0-7.8,1.6-10.6,4.4L334.4,548.4c-5.9,5.9-5.9,15.4,0,21.2l214,214c5.9,5.9,15.4,5.9,21.2,0l214.1-214c5.9-5.9,5.9-15.4,0-21.2   L773.1,559z"/>    <path d="M509.7,559l10.6,10.6l38.8-38.8l28.2,28.2l-28.2,28.2l-38.8-38.8L509.7,559l10.6,10.6L509.7,559l-10.6,10.6l49.4,49.4   c2.8,2.8,6.7,4.4,10.6,4.4c4,0,7.8-1.6,10.6-4.4l49.4-49.4c2.8-2.8,4.4-6.7,4.4-10.6c0-4-1.6-7.8-4.4-10.6l-49.4-49.4   c-5.9-5.9-15.4-5.9-21.2,0l-49.4,49.4c-5.9,5.9-5.9,15.4,0,21.2L509.7,559z"/>    <path d="M559,1102.4l10.6-10.6L103.8,626.1c-5.9-5.9-15.4-5.9-21.2,0L5,703.7c-2.8,2.8-4.4,6.7-4.4,10.6c0,4,1.6,7.8,4.4,10.6   l543.4,543.5c2.8,2.8,6.7,4.4,10.6,4.4c4,0,7.8-1.6,10.6-4.4l543.5-543.5c2.8-2.8,4.4-6.7,4.4-10.6c0-4-1.6-7.8-4.4-10.6   l-77.6-77.6c-5.9-5.9-15.4-5.9-21.2,0l-465.8,465.8L559,1102.4l10.6-10.6L559,1102.4l10.6,10.6l455.2-455.2l56.4,56.4L559,1236.5   L36.8,714.3l56.4-56.4l455.2,455.2c5.9,5.9,15.4,5.9,21.2,0L559,1102.4z"/></g></g><g id="SvgjsG1088" featureKey="j5pGhi-0" transform="matrix(3.0137339857587317,0,0,3.0137339857587317,98.48811443311561,11.932693841477874)" fill="#000"><path d="M1.5234 15.3809 l-0.019531 -1.1426 q-0.029296875 -0.83984375 0.068359375 -1.42578125 q0.21484375 -1.845703125 0.9375 -2.705078125 q0.703125 -0.751953125 1.435546875 -1.162109375 q1.2109375 -0.517578125 2.763671875 -0.48828125 q1.2109375 0 2.241210938 0.6103515625 t1.4697 1.6406 t0.43945 3.2275 l0 5.5078 l-1.3672 0 l0 -5.1074 q0 -1.85546875 -0.15625 -2.48046875 q-0.244140625 -1.064453125 -0.966796875 -1.508789063 t-2.1387 -0.44434 q-1.25 0 -2.2265625 0.72265625 t-0.9082 1.9727 q-0.185546875 0.80078125 -0.185546875 2.919921875 l0 3.9258 l-1.3867 0 l0 -4.0625 z M22.812625 15.6348 l1.1523 0.61523 q-0.556640625 1.123046875 -1.30859375 1.806640625 t-1.6895 1.04 t-2.1191 0.35645 q-2.6171875 0 -4.091796875 -1.713867188 t-1.4746 -3.8721 q0 -2.041015625 1.25 -3.6328125 q1.58203125 -2.03125 4.248046875 -2.03125 q2.724609375 0 4.365234375 2.080078125 q1.162109375 1.46484375 1.171875 3.65234375 l-9.6191 0 q0.0390625 1.875 1.19140625 3.071289063 t2.8418 1.1963 q0.8203125 0 1.591796875 -0.2880859375 t1.3135 -0.75684 t1.1768 -1.5234 z M22.812625 12.7539 q-0.2734375 -1.103515625 -0.80078125 -1.762695313 t-1.3965 -1.0645 t-1.8262 -0.40527 q-1.572265625 0 -2.705078125 1.015625 q-0.8203125 0.7421875 -1.240234375 2.216796875 l7.9688 0 z M25.6738325 8.73 l1.6504 0 l2.832 3.9746 l2.8418 -3.9746 l1.6504 0 l-3.6719 5.0879 l4.1309 5.625 l-1.6699 0 l-3.2813 -4.502 l-3.2324 4.502 l-1.6406 0 l4.0527 -5.625 z M40.419896875 17.9297 q-1.015625 0.546875 -1.9921875 0.087890625 q-1.19140625 -0.908203125 -1.1328125 -2.587890625 l0 -4.5313 l2.5391 0 l0 -1.1816 l-2.5488 0 l0 -5.1758 l-1.3867 0 l0 11.123 q-0.01953125 1.171875 0.537109375 2.1484375 q0.91796875 1.552734375 2.5 1.640625 q0.83984375 0.029296875 1.9140625 -0.380859375 q-0.166015625 -0.41015625 -0.4296875 -1.142578125 z M41.601562875 8.75 l1.416 0 l3.2813 7.7832 l3.4375 -7.7832 l0.24414 0 l3.418 7.7832 l3.3398 -7.7832 l1.4453 0 l-4.6484 10.713 l-0.27344 0 l-3.3984 -7.666 l-3.4375 7.666 l-0.25391 0 z M64.85351875 8.203 q2.470703125 0 4.1015625 1.787109375 q1.474609375 1.640625 1.474609375 3.876953125 t-1.5625 3.9111 t-4.0137 1.6748 q-2.4609375 0 -4.018554688 -1.674804688 t-1.5576 -3.9111 q0 -2.2265625 1.474609375 -3.8671875 q1.630859375 -1.796875 4.1015625 -1.796875 z M64.85351875 9.551 q-1.708984375 0 -2.939453125 1.26953125 t-1.2305 3.0664 q0 1.162109375 0.5615234375 2.172851563 t1.5186 1.5527 t2.0898 0.54199 q1.15234375 0 2.104492188 -0.5419921875 t1.5088 -1.5527 t0.55664 -2.1729 q0 -1.796875 -1.23046875 -3.06640625 t-2.9395 -1.2695 z M72.441446875 14.541 l0 -1.2891 q0.15625 -0.966796875 0.44921875 -1.572265625 q0.68359375 -1.6796875 1.8359375 -2.4609375 t1.9141 -0.78125 q0.56640625 0 1.2109375 0.37109375 l-0.71289 1.1523 q-0.908203125 -0.33203125 -1.801757813 0.537109375 t-1.2354 1.8945 q-0.25390625 0.908203125 -0.25390625 3.408203125 l0 3.623 l-1.4063 0 l0 -4.8828 z M88.926234375 17.3633 q0.87890625 -1.46484375 1.0546875 -2.880859375 q0 -10.16601563 0 -10.14648438 l-1.3672 0 l0 5.9766 q-0.869140625 -1.064453125 -1.943359375 -1.586914063 t-2.3535 -0.52246 q-2.265625 0 -3.876953125 1.650390625 t-1.6113 4.0039 q0 2.314453125 1.62109375 3.955078125 t3.9063 1.6406 q1.30859375 0 2.456054688 -0.5029296875 t2.1143 -1.5869 z M84.472634375 18.1348 q-1.162109375 0 -2.133789063 -0.5712890625 t-1.5479 -1.5869 t-0.57617 -2.168 q0 -1.1328125 0.5810546875 -2.172851563 t1.5625 -1.6113 t2.0947 -0.57129 q1.1328125 0 2.1484375 0.5712890625 t1.5625 1.5527 t0.54688 2.1924 q0 1.865234375 -1.23046875 3.115234375 t-3.0078 1.25 z"/></g>
			</g>
		</svg>
	