<?xml version="1.0" standalone="no"?>
<!DOCTYPE svg PUBLIC "-//W3C//DTD SVG 20010904//EN"
 "http://www.w3.org/TR/2001/REC-SVG-20010904/DTD/svg10.dtd">
<svg version="1.0" xmlns="http://www.w3.org/2000/svg"
 width="700.000000pt" height="700.000000pt" viewBox="0 0 700.000000 700.000000"
 preserveAspectRatio="xMidYMid meet">
<metadata>
Created by potrace 1.14, written by Peter Selinger 2001-2017
</metadata>
<g transform="translate(0.000000,700.000000) scale(0.100000,-0.100000)"
fill="#000000" stroke="none">
<path d="M3324 6547 c-6 -7 -96 -93 -199 -192 -689 -659 -2475 -2446 -2493
-2494 -6 -17 66 -107 190 -236 73 -76 133 -142 133 -146 0 -4 -57 -66 -126
-136 -135 -138 -179 -194 -179 -231 0 -27 25 -66 85 -132 200 -221 1747 -1758
2370 -2355 212 -202 237 -225 250 -225 20 0 301 273 973 943 1136 1132 1722
1734 1722 1768 0 22 -62 95 -201 237 l-131 132 103 103 c126 126 229 245 229
265 0 19 -31 54 -269 301 -508 530 -2064 2085 -2361 2360 -56 52 -76 60 -96
38z m1402 -1563 c618 -616 1124 -1124 1124 -1128 0 -5 -562 -570 -1248 -1256
l-1248 -1249 -1252 1252 -1252 1252 1250 1250 1251 1249 125 -124 c69 -69 632
-629 1250 -1246z m1124 -1879 c0 -10 -2486 -2495 -2497 -2495 -4 0 -569 561
-1255 1248 l-1248 1247 121 122 121 123 266 -264 c147 -145 323 -319 392 -386
69 -67 408 -402 754 -743 346 -342 652 -645 680 -672 28 -28 76 -72 107 -98
l57 -48 47 41 c106 92 646 624 1566 1544 l639 638 125 -125 c69 -68 125 -128
125 -132z"/>
<path d="M3338 5751 c-49 -18 -204 -167 -918 -881 -621 -620 -845 -849 -934
-953 -60 -70 -70 -48 122 -257 111 -120 1392 -1404 1524 -1527 106 -99 206
-183 218 -183 38 0 283 236 1135 1090 507 508 688 696 763 790 l20 25 -29 36
c-29 37 -115 130 -262 283 -295 307 -1380 1384 -1504 1493 -93 81 -111 93
-135 84z m1039 -1224 l672 -672 -853 -853 -852 -852 -849 848 c-466 467 -848
852 -848 857 0 4 382 390 848 856 l848 849 181 -180 c100 -99 483 -483 853
-853z"/>
<path d="M3317 4956 c-68 -52 -188 -167 -512 -491 -459 -459 -575 -582 -575
-611 0 -51 1060 -1113 1112 -1114 45 0 953 899 1090 1080 l27 36 -43 54 c-146
186 -1034 1061 -1074 1060 -4 0 -15 -7 -25 -14z m484 -1560 l-458 -458 -457
457 c-400 399 -456 458 -444 472 7 9 213 216 457 461 l444 444 459 -459 458
-458 -459 -459z"/>
<path d="M3293 4142 c-68 -55 -273 -271 -273 -290 0 -16 258 -278 303 -307 27
-17 28 -17 67 9 51 33 212 196 251 252 19 28 27 49 22 61 -22 60 -275 313
-314 313 -4 0 -29 -17 -56 -38z"/>
</g>
</svg>
